<mxfile host="app.diagrams.net" modified="2024-03-05T17:05:24.500Z" agent="Mozilla/5.0 (Windows NT 10.0; Win64; x64) AppleWebKit/537.36 (KHTML, like Gecko) Chrome/122.0.0.0 Safari/537.36" etag="2Ef3j0Kt6MRMWW_Efn-V" version="24.0.1" type="github">
  <diagram name="PÃ¡gina-1" id="eQ_4Q5Sc0SvUyVQB5dWW">
    <mxGraphModel dx="1859" dy="539" grid="1" gridSize="10" guides="1" tooltips="1" connect="1" arrows="1" fold="1" page="1" pageScale="1" pageWidth="827" pageHeight="1169" math="0" shadow="0">
      <root>
        <mxCell id="0" />
        <mxCell id="1" parent="0" />
        <mxCell id="uq0YjIHy0Rmrqcy4UQXp-60" style="edgeStyle=orthogonalEdgeStyle;rounded=0;orthogonalLoop=1;jettySize=auto;html=1;entryX=1;entryY=0.5;entryDx=0;entryDy=0;" edge="1" parent="1" source="uq0YjIHy0Rmrqcy4UQXp-6" target="uq0YjIHy0Rmrqcy4UQXp-35">
          <mxGeometry relative="1" as="geometry" />
        </mxCell>
        <mxCell id="uq0YjIHy0Rmrqcy4UQXp-61" style="edgeStyle=orthogonalEdgeStyle;rounded=0;orthogonalLoop=1;jettySize=auto;html=1;entryX=1;entryY=0.5;entryDx=0;entryDy=0;" edge="1" parent="1" source="uq0YjIHy0Rmrqcy4UQXp-6" target="uq0YjIHy0Rmrqcy4UQXp-31">
          <mxGeometry relative="1" as="geometry" />
        </mxCell>
        <mxCell id="uq0YjIHy0Rmrqcy4UQXp-62" style="edgeStyle=orthogonalEdgeStyle;rounded=0;orthogonalLoop=1;jettySize=auto;html=1;entryX=1;entryY=0.5;entryDx=0;entryDy=0;" edge="1" parent="1" source="uq0YjIHy0Rmrqcy4UQXp-6" target="uq0YjIHy0Rmrqcy4UQXp-25">
          <mxGeometry relative="1" as="geometry" />
        </mxCell>
        <mxCell id="uq0YjIHy0Rmrqcy4UQXp-63" style="edgeStyle=orthogonalEdgeStyle;rounded=0;orthogonalLoop=1;jettySize=auto;html=1;entryX=0;entryY=0.5;entryDx=0;entryDy=0;" edge="1" parent="1" source="uq0YjIHy0Rmrqcy4UQXp-6" target="uq0YjIHy0Rmrqcy4UQXp-15">
          <mxGeometry relative="1" as="geometry" />
        </mxCell>
        <mxCell id="uq0YjIHy0Rmrqcy4UQXp-64" style="edgeStyle=orthogonalEdgeStyle;rounded=0;orthogonalLoop=1;jettySize=auto;html=1;entryX=0;entryY=0.75;entryDx=0;entryDy=0;" edge="1" parent="1" source="uq0YjIHy0Rmrqcy4UQXp-6" target="uq0YjIHy0Rmrqcy4UQXp-10">
          <mxGeometry relative="1" as="geometry" />
        </mxCell>
        <mxCell id="uq0YjIHy0Rmrqcy4UQXp-66" style="edgeStyle=orthogonalEdgeStyle;rounded=0;orthogonalLoop=1;jettySize=auto;html=1;entryX=0;entryY=0.5;entryDx=0;entryDy=0;" edge="1" parent="1" source="uq0YjIHy0Rmrqcy4UQXp-6" target="uq0YjIHy0Rmrqcy4UQXp-20">
          <mxGeometry relative="1" as="geometry" />
        </mxCell>
        <mxCell id="uq0YjIHy0Rmrqcy4UQXp-6" value="Cliente" style="swimlane;fontStyle=0;childLayout=stackLayout;horizontal=1;startSize=26;fillColor=#dae8fc;horizontalStack=0;resizeParent=1;resizeParentMax=0;resizeLast=0;collapsible=1;marginBottom=0;whiteSpace=wrap;html=1;strokeColor=#6c8ebf;" vertex="1" parent="1">
          <mxGeometry x="210" y="181" width="180" height="90" as="geometry" />
        </mxCell>
        <mxCell id="uq0YjIHy0Rmrqcy4UQXp-81" value="codigo_cliente&lt;div&gt;_hash&lt;/div&gt;" style="text;html=1;align=left;verticalAlign=middle;whiteSpace=wrap;rounded=0;" vertex="1" parent="uq0YjIHy0Rmrqcy4UQXp-6">
          <mxGeometry y="26" width="180" height="64" as="geometry" />
        </mxCell>
        <mxCell id="uq0YjIHy0Rmrqcy4UQXp-10" value="Dados gerais" style="swimlane;fontStyle=0;childLayout=stackLayout;horizontal=1;startSize=26;fillColor=#dae8fc;horizontalStack=0;resizeParent=1;resizeParentMax=0;resizeLast=0;collapsible=1;marginBottom=0;whiteSpace=wrap;html=1;strokeColor=#6c8ebf;strokeWidth=1;arcSize=20;" vertex="1" parent="1">
          <mxGeometry x="510" y="101" width="180" height="56" as="geometry" />
        </mxCell>
        <mxCell id="uq0YjIHy0Rmrqcy4UQXp-83" value="&lt;div&gt;_hash&lt;/div&gt;" style="text;html=1;align=left;verticalAlign=middle;whiteSpace=wrap;rounded=0;" vertex="1" parent="uq0YjIHy0Rmrqcy4UQXp-10">
          <mxGeometry y="26" width="180" height="30" as="geometry" />
        </mxCell>
        <mxCell id="uq0YjIHy0Rmrqcy4UQXp-15" value="Dados_Gerais_Pessoa_Fisica" style="swimlane;fontStyle=0;childLayout=stackLayout;horizontal=1;startSize=26;fillColor=#dae8fc;horizontalStack=0;resizeParent=1;resizeParentMax=0;resizeLast=0;collapsible=1;marginBottom=0;whiteSpace=wrap;html=1;strokeColor=#6c8ebf;" vertex="1" parent="1">
          <mxGeometry x="510" y="180" width="180" height="56" as="geometry" />
        </mxCell>
        <mxCell id="uq0YjIHy0Rmrqcy4UQXp-84" value="&lt;div&gt;_hash&lt;/div&gt;" style="text;html=1;align=left;verticalAlign=middle;whiteSpace=wrap;rounded=0;" vertex="1" parent="uq0YjIHy0Rmrqcy4UQXp-15">
          <mxGeometry y="26" width="180" height="30" as="geometry" />
        </mxCell>
        <mxCell id="uq0YjIHy0Rmrqcy4UQXp-20" value="Dados_Gerais_Pessoa_Juridica" style="swimlane;fontStyle=0;childLayout=stackLayout;horizontal=1;startSize=26;fillColor=#dae8fc;horizontalStack=0;resizeParent=1;resizeParentMax=0;resizeLast=0;collapsible=1;marginBottom=0;whiteSpace=wrap;html=1;strokeColor=#6c8ebf;" vertex="1" parent="1">
          <mxGeometry x="510" y="271" width="180" height="56" as="geometry" />
        </mxCell>
        <mxCell id="uq0YjIHy0Rmrqcy4UQXp-85" value="&lt;div&gt;_hash&lt;/div&gt;" style="text;html=1;align=left;verticalAlign=middle;whiteSpace=wrap;rounded=0;" vertex="1" parent="uq0YjIHy0Rmrqcy4UQXp-20">
          <mxGeometry y="26" width="180" height="30" as="geometry" />
        </mxCell>
        <mxCell id="uq0YjIHy0Rmrqcy4UQXp-25" value="Email" style="swimlane;fontStyle=0;childLayout=stackLayout;horizontal=1;startSize=26;fillColor=#dae8fc;horizontalStack=0;resizeParent=1;resizeParentMax=0;resizeLast=0;collapsible=1;marginBottom=0;whiteSpace=wrap;html=1;strokeColor=#6c8ebf;" vertex="1" parent="1">
          <mxGeometry x="-80" y="271" width="180" height="56" as="geometry" />
        </mxCell>
        <mxCell id="uq0YjIHy0Rmrqcy4UQXp-86" value="&lt;div&gt;_hash&lt;/div&gt;" style="text;html=1;align=right;verticalAlign=middle;whiteSpace=wrap;rounded=0;" vertex="1" parent="uq0YjIHy0Rmrqcy4UQXp-25">
          <mxGeometry y="26" width="180" height="30" as="geometry" />
        </mxCell>
        <mxCell id="uq0YjIHy0Rmrqcy4UQXp-31" value="Endereco" style="swimlane;fontStyle=0;childLayout=stackLayout;horizontal=1;startSize=26;fillColor=#dae8fc;horizontalStack=0;resizeParent=1;resizeParentMax=0;resizeLast=0;collapsible=1;marginBottom=0;whiteSpace=wrap;html=1;strokeColor=#6c8ebf;" vertex="1" parent="1">
          <mxGeometry x="-80" y="180" width="180" height="56" as="geometry" />
        </mxCell>
        <mxCell id="uq0YjIHy0Rmrqcy4UQXp-88" value="&lt;div&gt;_hash&lt;/div&gt;" style="text;html=1;align=right;verticalAlign=middle;whiteSpace=wrap;rounded=0;" vertex="1" parent="uq0YjIHy0Rmrqcy4UQXp-31">
          <mxGeometry y="26" width="180" height="30" as="geometry" />
        </mxCell>
        <mxCell id="uq0YjIHy0Rmrqcy4UQXp-35" value="Telefone" style="swimlane;fontStyle=0;childLayout=stackLayout;horizontal=1;startSize=26;fillColor=#dae8fc;horizontalStack=0;resizeParent=1;resizeParentMax=0;resizeLast=0;collapsible=1;marginBottom=0;whiteSpace=wrap;html=1;strokeColor=#6c8ebf;" vertex="1" parent="1">
          <mxGeometry x="-80" y="101" width="180" height="56" as="geometry" />
        </mxCell>
        <mxCell id="uq0YjIHy0Rmrqcy4UQXp-89" value="&lt;div&gt;_hash&lt;/div&gt;" style="text;html=1;align=right;verticalAlign=middle;whiteSpace=wrap;rounded=0;" vertex="1" parent="uq0YjIHy0Rmrqcy4UQXp-35">
          <mxGeometry y="26" width="180" height="30" as="geometry" />
        </mxCell>
        <mxCell id="uq0YjIHy0Rmrqcy4UQXp-53" value="&lt;h1&gt;Dados de Clientes - Catalogos&lt;/h1&gt;" style="text;html=1;spacing=5;spacingTop=-20;whiteSpace=wrap;overflow=hidden;rounded=0;" vertex="1" parent="1">
          <mxGeometry x="130" y="30" width="390" height="50" as="geometry" />
        </mxCell>
        <mxCell id="uq0YjIHy0Rmrqcy4UQXp-67" value="&lt;h1&gt;Dados de Fornecedores - Catalogos&lt;/h1&gt;" style="text;html=1;spacing=5;spacingTop=-20;whiteSpace=wrap;overflow=hidden;rounded=0;" vertex="1" parent="1">
          <mxGeometry x="100" y="370" width="450" height="50" as="geometry" />
        </mxCell>
        <mxCell id="uq0YjIHy0Rmrqcy4UQXp-68" style="edgeStyle=orthogonalEdgeStyle;rounded=0;orthogonalLoop=1;jettySize=auto;html=1;entryX=1;entryY=0.5;entryDx=0;entryDy=0;" edge="1" parent="1" source="uq0YjIHy0Rmrqcy4UQXp-74" target="uq0YjIHy0Rmrqcy4UQXp-80">
          <mxGeometry relative="1" as="geometry" />
        </mxCell>
        <mxCell id="uq0YjIHy0Rmrqcy4UQXp-69" style="edgeStyle=orthogonalEdgeStyle;rounded=0;orthogonalLoop=1;jettySize=auto;html=1;entryX=1;entryY=0.5;entryDx=0;entryDy=0;" edge="1" parent="1" source="uq0YjIHy0Rmrqcy4UQXp-74" target="uq0YjIHy0Rmrqcy4UQXp-79">
          <mxGeometry relative="1" as="geometry" />
        </mxCell>
        <mxCell id="uq0YjIHy0Rmrqcy4UQXp-70" style="edgeStyle=orthogonalEdgeStyle;rounded=0;orthogonalLoop=1;jettySize=auto;html=1;entryX=1;entryY=0.5;entryDx=0;entryDy=0;" edge="1" parent="1" source="uq0YjIHy0Rmrqcy4UQXp-74" target="uq0YjIHy0Rmrqcy4UQXp-78">
          <mxGeometry relative="1" as="geometry" />
        </mxCell>
        <mxCell id="uq0YjIHy0Rmrqcy4UQXp-71" style="edgeStyle=orthogonalEdgeStyle;rounded=0;orthogonalLoop=1;jettySize=auto;html=1;entryX=0;entryY=0.5;entryDx=0;entryDy=0;" edge="1" parent="1" source="uq0YjIHy0Rmrqcy4UQXp-74" target="uq0YjIHy0Rmrqcy4UQXp-76">
          <mxGeometry relative="1" as="geometry" />
        </mxCell>
        <mxCell id="uq0YjIHy0Rmrqcy4UQXp-72" style="edgeStyle=orthogonalEdgeStyle;rounded=0;orthogonalLoop=1;jettySize=auto;html=1;entryX=0;entryY=0.75;entryDx=0;entryDy=0;" edge="1" parent="1" source="uq0YjIHy0Rmrqcy4UQXp-74" target="uq0YjIHy0Rmrqcy4UQXp-75">
          <mxGeometry relative="1" as="geometry" />
        </mxCell>
        <mxCell id="uq0YjIHy0Rmrqcy4UQXp-73" style="edgeStyle=orthogonalEdgeStyle;rounded=0;orthogonalLoop=1;jettySize=auto;html=1;entryX=0;entryY=0.5;entryDx=0;entryDy=0;" edge="1" parent="1" source="uq0YjIHy0Rmrqcy4UQXp-74" target="uq0YjIHy0Rmrqcy4UQXp-77">
          <mxGeometry relative="1" as="geometry" />
        </mxCell>
        <mxCell id="uq0YjIHy0Rmrqcy4UQXp-74" value="Fornecedor" style="swimlane;fontStyle=0;childLayout=stackLayout;horizontal=1;startSize=26;fillColor=#dae8fc;horizontalStack=0;resizeParent=1;resizeParentMax=0;resizeLast=0;collapsible=1;marginBottom=0;whiteSpace=wrap;html=1;strokeColor=#6c8ebf;" vertex="1" parent="1">
          <mxGeometry x="210" y="520" width="180" height="90" as="geometry" />
        </mxCell>
        <mxCell id="uq0YjIHy0Rmrqcy4UQXp-97" value="codigo_Fornecedor&lt;div&gt;_hash&lt;/div&gt;" style="text;html=1;align=left;verticalAlign=middle;whiteSpace=wrap;rounded=0;" vertex="1" parent="uq0YjIHy0Rmrqcy4UQXp-74">
          <mxGeometry y="26" width="180" height="64" as="geometry" />
        </mxCell>
        <mxCell id="uq0YjIHy0Rmrqcy4UQXp-75" value="Dados gerais" style="swimlane;fontStyle=0;childLayout=stackLayout;horizontal=1;startSize=26;fillColor=#dae8fc;horizontalStack=0;resizeParent=1;resizeParentMax=0;resizeLast=0;collapsible=1;marginBottom=0;whiteSpace=wrap;html=1;strokeColor=#6c8ebf;strokeWidth=1;arcSize=20;" vertex="1" parent="1">
          <mxGeometry x="510" y="440" width="180" height="56" as="geometry" />
        </mxCell>
        <mxCell id="uq0YjIHy0Rmrqcy4UQXp-94" value="&lt;div&gt;_hash&lt;/div&gt;" style="text;html=1;align=left;verticalAlign=middle;whiteSpace=wrap;rounded=0;" vertex="1" parent="uq0YjIHy0Rmrqcy4UQXp-75">
          <mxGeometry y="26" width="180" height="30" as="geometry" />
        </mxCell>
        <mxCell id="uq0YjIHy0Rmrqcy4UQXp-76" value="Dados_Gerais_Pessoa_Fisica" style="swimlane;fontStyle=0;childLayout=stackLayout;horizontal=1;startSize=26;fillColor=#dae8fc;horizontalStack=0;resizeParent=1;resizeParentMax=0;resizeLast=0;collapsible=1;marginBottom=0;whiteSpace=wrap;html=1;strokeColor=#6c8ebf;" vertex="1" parent="1">
          <mxGeometry x="510" y="519" width="180" height="56" as="geometry" />
        </mxCell>
        <mxCell id="uq0YjIHy0Rmrqcy4UQXp-95" value="&lt;div&gt;_hash&lt;/div&gt;" style="text;html=1;align=left;verticalAlign=middle;whiteSpace=wrap;rounded=0;" vertex="1" parent="uq0YjIHy0Rmrqcy4UQXp-76">
          <mxGeometry y="26" width="180" height="30" as="geometry" />
        </mxCell>
        <mxCell id="uq0YjIHy0Rmrqcy4UQXp-77" value="Dados_Gerais_Pessoa_Juridica" style="swimlane;fontStyle=0;childLayout=stackLayout;horizontal=1;startSize=26;fillColor=#dae8fc;horizontalStack=0;resizeParent=1;resizeParentMax=0;resizeLast=0;collapsible=1;marginBottom=0;whiteSpace=wrap;html=1;strokeColor=#6c8ebf;" vertex="1" parent="1">
          <mxGeometry x="510" y="610" width="180" height="56" as="geometry" />
        </mxCell>
        <mxCell id="uq0YjIHy0Rmrqcy4UQXp-96" value="&lt;div&gt;_hash&lt;/div&gt;" style="text;html=1;align=left;verticalAlign=middle;whiteSpace=wrap;rounded=0;" vertex="1" parent="uq0YjIHy0Rmrqcy4UQXp-77">
          <mxGeometry y="26" width="180" height="30" as="geometry" />
        </mxCell>
        <mxCell id="uq0YjIHy0Rmrqcy4UQXp-78" value="Email" style="swimlane;fontStyle=0;childLayout=stackLayout;horizontal=1;startSize=26;fillColor=#dae8fc;horizontalStack=0;resizeParent=1;resizeParentMax=0;resizeLast=0;collapsible=1;marginBottom=0;whiteSpace=wrap;html=1;strokeColor=#6c8ebf;" vertex="1" parent="1">
          <mxGeometry x="-80" y="610" width="180" height="56" as="geometry" />
        </mxCell>
        <mxCell id="uq0YjIHy0Rmrqcy4UQXp-92" value="&lt;div&gt;_hash&lt;/div&gt;" style="text;html=1;align=right;verticalAlign=middle;whiteSpace=wrap;rounded=0;" vertex="1" parent="uq0YjIHy0Rmrqcy4UQXp-78">
          <mxGeometry y="26" width="180" height="30" as="geometry" />
        </mxCell>
        <mxCell id="uq0YjIHy0Rmrqcy4UQXp-79" value="Endereco" style="swimlane;fontStyle=0;childLayout=stackLayout;horizontal=1;startSize=26;fillColor=#dae8fc;horizontalStack=0;resizeParent=1;resizeParentMax=0;resizeLast=0;collapsible=1;marginBottom=0;whiteSpace=wrap;html=1;strokeColor=#6c8ebf;" vertex="1" parent="1">
          <mxGeometry x="-80" y="519" width="180" height="56" as="geometry" />
        </mxCell>
        <mxCell id="uq0YjIHy0Rmrqcy4UQXp-91" value="&lt;div&gt;_hash&lt;/div&gt;" style="text;html=1;align=right;verticalAlign=middle;whiteSpace=wrap;rounded=0;" vertex="1" parent="uq0YjIHy0Rmrqcy4UQXp-79">
          <mxGeometry y="26" width="180" height="30" as="geometry" />
        </mxCell>
        <mxCell id="uq0YjIHy0Rmrqcy4UQXp-80" value="Telefone" style="swimlane;fontStyle=0;childLayout=stackLayout;horizontal=1;startSize=26;fillColor=#dae8fc;horizontalStack=0;resizeParent=1;resizeParentMax=0;resizeLast=0;collapsible=1;marginBottom=0;whiteSpace=wrap;html=1;strokeColor=#6c8ebf;" vertex="1" parent="1">
          <mxGeometry x="-80" y="440" width="180" height="56" as="geometry" />
        </mxCell>
        <mxCell id="uq0YjIHy0Rmrqcy4UQXp-90" value="&lt;div&gt;_hash&lt;/div&gt;" style="text;html=1;align=right;verticalAlign=middle;whiteSpace=wrap;rounded=0;" vertex="1" parent="uq0YjIHy0Rmrqcy4UQXp-80">
          <mxGeometry y="26" width="180" height="30" as="geometry" />
        </mxCell>
      </root>
    </mxGraphModel>
  </diagram>
</mxfile>
